<svg id="Layer_1" data-name="Layer 1" xmlns="http://www.w3.org/2000/svg" viewBox="0 0 215.09 196.55"><defs><style>.cls-1{fill:#fff;}</style></defs><polygon points="8.51 98.78 31.27 77.61 82.5 108.54 197.97 9.71 208.14 31.69 91.81 187.23 8.51 98.78"/><path class="cls-1" d="M542.63,199.93,548,211.47l-109.91,147-74.27-78.86,15-14,51.07,30.84,112.74-96.5m4.24-19.42-12,10.3L428.67,281.68,385,255.32l-7.75-4.68-6.62,6.16-15,14L346.78,279l8.27,8.79,74.27,78.86,9.8,10.39,8.55-11.43,109.91-147,4.29-5.73-3-6.5-5.34-11.54-6.65-14.38Z" transform="translate(-346.78 -180.51)"/></svg>